<?xml version="1.0" encoding="utf-8"?>
<!-- Generator: Adobe Illustrator 19.2.1, SVG Export Plug-In . SVG Version: 6.00 Build 0)  -->
<svg version="1.1" id="layer" xmlns="http://www.w3.org/2000/svg" xmlns:xlink="http://www.w3.org/1999/xlink" x="0px" y="0px"
	 viewBox="0 0 652 652" style="enable-background:new 0 0 652 652;" xml:space="preserve">
<style type="text/css">
	.st0{fill:#65656A;}
	.st1{fill:#FFFFFF;}
	.st2{fill:#FF6C0C;}
</style>
<g>
	<g>
		<path class="st0" d="M118.8,278c9.7,0,17.9,3.3,24.5,9.8c6.6,6.5,9.9,14.5,9.9,24c0,9.4-3.3,17.4-9.8,24c-6.5,6.6-14.5,9.8-24,9.8
			c-9.5,0-17.6-3.3-24.2-9.8c-6.6-6.5-9.8-14.4-9.8-23.7c0-6.2,1.5-11.9,4.5-17.2c3-5.3,7.1-9.4,12.2-12.4
			C107.2,279.5,112.8,278,118.8,278 M119.1,284.3c-4.8,0-9.3,1.2-13.5,3.7c-4.3,2.5-7.6,5.8-10,10c-2.4,4.2-3.6,8.9-3.6,14.1
			c0,7.6,2.6,14.1,8,19.4c5.3,5.3,11.7,7.9,19.2,7.9c5,0,9.6-1.2,13.9-3.6c4.2-2.4,7.6-5.7,9.9-9.9c2.4-4.2,3.6-8.9,3.6-14
			c0-5.1-1.2-9.7-3.6-13.9c-2.4-4.1-5.7-7.4-10.1-9.9C128.5,285.5,123.9,284.3,119.1,284.3"/>
		<polygon class="st0" points="170.5,346.1 170.5,277.8 172,277.8 217.5,330.2 217.5,277.8 224.3,277.8 224.3,346.1 222.7,346.1 
			177.6,294.4 177.6,346.1 		"/>
		<rect x="242.8" y="277.8" class="st0" width="6.4" height="68.2"/>
		<polygon class="st1" points="459.8,319.1 477.9,319.1 468.9,295.8 		"/>
		<path class="st0" d="M473.9,277.8h-13.1l-18.4,49.3l37.1,0.2l7.1,18.5H500L473.9,277.8z M458.4,319.1l9.1-23.3l9,23.3H458.4z"/>
		<polygon class="st0" points="514,277.8 526.9,277.8 526.9,333.3 552.6,333.3 552.6,345.6 514,345.6 		"/>
		<polygon class="st0" points="566.4,277.8 579.3,277.8 579.3,333.3 605,333.3 605,345.6 566.4,345.6 		"/>
		<path class="st2" d="M462.5,374.4c0,0-31.6-11.4-38.6-30.3c-7.8-21.2,21.1-26,50.7-25.2c15.9,0.5,35.4,2.9,35.4,2.9
			s-46,5.9-62.6,19.3C431.2,354.1,462.5,374.4,462.5,374.4"/>
		<path class="st0" d="M325.3,329.6c-6,6.8-13.5,10.2-22.3,10.2c-8.2,0-15.1-2.6-20.5-7.9c-5.4-5.3-8.1-11.9-8.1-19.7
			c0-5.2,1.2-9.9,3.6-14.1c2.4-4.2,5.8-7.5,10.2-10c4.4-2.5,9.2-3.7,14.3-3.7c4.7,0,9,0.9,13,2.8c3.8,1.8,7,4.4,9.8,7.9v-8.8
			c-2-1.6-4.1-3.6-6.5-4.7c-4.9-2.4-10.3-3.6-16.4-3.6c-10,0-18.3,3.2-25,9.7c-6.6,6.5-10,14.4-10,23.9c0,9,2.7,16.7,8.2,23
			c6.5,7.5,15.5,11.3,26.8,11.3c5.9,0,11.3-1.1,16.2-3.4c2.4-1.1,4.6-3,6.6-4.6V329.6z"/>
		<path class="st0" d="M50.5,308.7c-15.4-3.2-18.3-7.2-18.3-13.5v-0.2c0-6.7,6.4-11.5,15.1-11.5c7.3,0,13.2,2.2,18.9,7.1l0.5,0.5
			l0.1-0.2v-7.5c-5.9-3.9-11.8-5.6-19.4-5.6c-12.3,0-21.5,7.6-21.5,17.7v0.2c0,10.2,6.5,15.7,22.4,18.9c14.9,3,17.8,6.9,17.8,13.1
			v0.2c0,7.2-6.5,12.2-15.7,12.2c-9,0-15.4-2.6-22.7-9.4l-0.5-0.5l-0.1,0.1v7.8c7.1,5.3,14.3,7.7,23.1,7.7c13,0,22.1-7.5,22.1-18.3
			v-0.2C72.3,317.4,65.8,311.8,50.5,308.7"/>
		<polygon class="st0" points="422.9,277.8 407.4,324 407.1,325 406.8,324 391.5,277.6 379.1,277.6 363.8,324 363.5,325 363.1,324 
			347.6,277.8 332.2,277.8 356.7,346 369.4,346 384.7,301.5 385.1,300.6 385.4,301.5 400.8,346 413.4,346 437.9,277.8 		"/>
		<path class="st0" d="M610.4,280h-2.7v-1.8h7.4v1.8h-2.7v7.2h-2V280z M617,278.2h2.2l2.4,3.8l2.4-3.8h2.1v9h-1.9v-6l-2.5,3.9h-0.2
			l-2.5-3.9v6H617V278.2z"/>
	</g>
</g>
</svg>
